# xmcd
#
# Track frame offsets: 
#        150
#        13988
#        27497
#        41920
#        56718
#        76054
#        90351
#        102744
#        117547
#        131803
#        144015
#        156279
#        170386
#        185068
#        198085
#        213208
#        227206
#        242293
#        254369
#        267761
#        281261
#        294841
#        304657
#        317324
#        329413
#        341075
#
# Disc length: 4699 seconds
#
# Revision: 1
# Processed by: cddbd v1.5.1PL2 Copyright (c) Steve Scherf et al.
# Submitted via: ExactAudioCopy v0.95a4
#
DISCID=7012591a
DTITLE=Various Artist - The Milt Gabler Story
DYEAR=2005
DGENRE=Jazz
TTITLE0=Eddie Condon and His Windy City Seven - Love is Just Around the 
TTITLE0=Corner
TTITLE1=The Kansas City Six - Them There Eyes
TTITLE2=Billie Holliday - Strange Fruit
TTITLE3=Billie Holliday - Fine and Mellow
TTITLE4=Wild Bill Davison and His Commodores - That's a Plenty
TTITLE5=Lionel Hampton and His Orchestra - Flying Home
TTITLE6=Dick Haymes and the Song Spinners - You'll Never Know
TTITLE7=Billie Holliday - Lover Man (Oh, Where Can You Be?)
TTITLE8=The Andrews Sisters - Rum and Coca-Cola
TTITLE9=Bing Crosby and the Jesters - MacNamara's Band
TTITLE10=Louis Jordan and His Tympany 5 - Choo Choo Ch' Boogie
TTITLE11=Ella Fitzgerald - Oh, Lady, Be Good!
TTITLE12=Ella Fitzgerald - How High the Moon
TTITLE13=Louis Armstrong - Blueberry Hill
TTITLE14=The Weavers - Goodnight Irene
TTITLE15=Louis Armstrong and Ella Fitzgerald - Dream a Little Dream of
TTITLE15=Me
TTITLE16=Peggy Lee - Lover
TTITLE17=The Mills Brothers - The Glow-Worm
TTITLE18=Peral Bailey - It Takes Two to Tango
TTITLE19=Kitty Kallen - Little Things Mean a Lot
TTITLE20=The Four Aces - Three Coins in the Fountain
TTITLE21=Bill Haley and His Comets - (We're Gonna) Rock Around the Clo
TTITLE21=ck
TTITLE22=Sammy Davis, Jr. - Hey There
TTITLE23=Roberta Sherwood - You're Nobody 'Till Somebody Loves You
TTITLE24=Wayne Newton - Danke Schoen
TTITLE25=Nat "King" Cole - L-O-V-E
EXTD=YEAR: 1938
EXTT0=
EXTT1=
EXTT2=
EXTT3=
EXTT4=
EXTT5=
EXTT6=
EXTT7=
EXTT8=
EXTT9=
EXTT10=
EXTT11=
EXTT12=
EXTT13=
EXTT14=
EXTT15=
EXTT16=
EXTT17=
EXTT18=
EXTT19=
EXTT20=
EXTT21=
EXTT22=
EXTT23=
EXTT24=
EXTT25=
PLAYORDER=
